<?xml version="1.0" encoding="UTF-8" standalone="no" ?>
<!DOCTYPE svg PUBLIC "-//W3C//DTD SVG 1.1//EN" "http://www.w3.org/Graphics/SVG/1.1/DTD/svg11.dtd">
<svg xmlns="http://www.w3.org/2000/svg" xmlns:xlink="http://www.w3.org/1999/xlink" version="1.1" width="680" height="480" viewBox="0 0 680 480" xml:space="preserve">
<desc>Created with Fabric.js 3.6.6</desc>
<defs>
</defs>
<g transform="matrix(1 0 0 1 314 211.5)"  >
<g style=""   >
		<g transform="matrix(1 0 0 1 -129.25 -150.1)" id="Layer_1"  >
<path style="stroke: none; stroke-width: 1; stroke-dasharray: none; stroke-linecap: butt; stroke-dashoffset: 0; stroke-linejoin: miter; stroke-miterlimit: 4; fill: rgb(42,148,244); fill-rule: nonzero; opacity: 0.55;"  transform=" translate(-410.75, -389.9)" d="M 401.32 412.63 c 5.372 6.962 12.253 13.539 20.586 17.527 l 11.001 4.042 l 1.451 -9.01 c -1.112 -10.567 -2.052 -20.078 -4.116 -28.983 c -0.879 3.435 -1.991 7.05 -3.278 9.664 c 0 0 1.571 -6.517 2.432 -13.034 c -2.104 -7.771 -5.226 -15.111 -10.267 -22.333 c -0.16 4.469 -0.653 12.525 -2.168 17.535 c 0 0 1.03 -13.149 -0.236 -20.783 c -3.112 -3.971 -2.338 -3.374 -6.857 -7.356 c 0.047 4.59 -0.107 10.914 -1.098 15.176 c 0 0 0.137 -9.382 -0.855 -16.861 c -3.169 -2.668 -11.209 -9.9 -15.139 -12.62 c 0 0 -5.074 5.072 -5.5 20.979 c 2.776 3.24 5.526 7.87 10.845 12.174 c 0 0 -2.463 -1.413 -10.873 -9.437 c 0.059 6.392 -0.813 13.859 1.508 20.639 c 2.656 1.605 5.57 2.201 13.664 7.138 c 0 0 -8.18 -4.169 -12.132 -3.162 c 1.921 4.449 4.782 9.887 8.545 15.307 l 9.083 5.882 L 401.32 412.63 z" stroke-linecap="round" />
</g>
		<g transform="matrix(1 0 0 1 -130.65 -118.54)" id="Layer_1"  >
<path style="stroke: none; stroke-width: 1; stroke-dasharray: none; stroke-linecap: butt; stroke-dashoffset: 0; stroke-linejoin: miter; stroke-miterlimit: 4; fill: rgb(42,148,244); fill-rule: nonzero; opacity: 0.55;"  transform=" translate(-409.35, -421.46)" d="M 409.33 446.312 c 7.907 3.848 16.995 6.68 26.232 6.547 l 11.651 -1.271 l -2.706 -8.716 c -5.694 -8.971 -10.765 -17.072 -16.573 -24.131 c 0.74 3.468 1.351 7.2 1.361 10.114 c 0 0 -1.49 -6.536 -3.616 -12.756 c -5.34 -6.025 -11.399 -11.212 -19.126 -15.44 c 1.843 4.074 4.983 11.509 5.854 16.671 c 0 0 -4.924 -12.236 -9.451 -18.511 c -4.553 -2.173 -3.595 -1.983 -9.412 -3.54 c 2.083 4.091 4.756 9.824 5.764 14.082 c 0 0 -4.048 -8.465 -8.262 -14.722 c -4.025 -0.981 -14.442 -3.885 -19.171 -4.573 c 0 0 -2.29 6.798 4.401 21.237 c 3.927 1.668 8.449 4.592 15.127 6.083 c 0 0 -2.834 -0.17 -13.934 -3.619 c 2.895 5.699 5.434 12.775 10.527 17.816 c 3.093 0.257 5.967 -0.505 15.413 0.319 c 0 0 -9.18 -0.098 -12.273 2.562 c 3.699 3.13 8.679 6.73 14.459 9.912 l 10.75 1.23 L 409.33 446.312 z" stroke-linecap="round" />
</g>
		<g transform="matrix(1 0 0 1 83.48 30.72)" id="Layer_1"  >
<path style="stroke: none; stroke-width: 1; stroke-dasharray: none; stroke-linecap: butt; stroke-dashoffset: 0; stroke-linejoin: miter; stroke-miterlimit: 4; fill: rgb(204,233,255); fill-rule: nonzero; opacity: 1;"  transform=" translate(-623.48, -570.72)" d="M 749.336 645.405 c -1.604 8.331 -6.56 13.3 -14.909 14.868 c -2.296 -1.376 -4.836 -0.833 -7.273 -0.834 c -69.097 -0.028 -138.195 -0.028 -207.292 0.001 c -2.435 0.001 -4.978 -0.553 -7.266 0.851 c -9.084 -1.892 -14.289 -7.268 -14.99 -16.69 c 2.156 -12.272 0.608 -24.642 0.916 -36.962 c 0.288 -11.52 0.071 -11.525 12.212 -9.765 c 3.965 11.141 1.244 22.64 1.646 33.956 c 0.519 14.609 0.129 14.642 14.965 14.644 c 64.903 0.008 129.806 0.008 194.709 0 c 12.429 -0.002 12.453 -0.026 12.456 -12.374 c 0.011 -41.923 -0.193 -83.848 0.169 -125.768 c 0.073 -8.475 -2.333 -11.511 -11.08 -11.285 c -21.103 0.545 -42.229 0.229 -63.346 0.122 c -3.278 -0.017 -6.896 1.187 -9.739 -1.668 c -3.058 -10.521 -1.582 -13.119 9.107 -13.048 c 24.065 0.161 48.152 -1.213 72.196 0.797 c 1.545 0.129 3.088 0.044 4.473 -0.811 c 6.836 2.765 11.925 7.067 13.063 14.845 c -1.326 1.959 -0.883 4.186 -0.884 6.315 c -0.022 45.494 -0.022 90.988 0 136.482 C 748.473 641.212 748.041 643.436 749.336 645.405 z" stroke-linecap="round" />
</g>
		<g transform="matrix(1 0 0 1 150.64 7.6)" id="Layer_1"  >
<path style="stroke: none; stroke-width: 1; stroke-dasharray: none; stroke-linecap: butt; stroke-dashoffset: 0; stroke-linejoin: miter; stroke-miterlimit: 4; fill: rgb(204,233,255); fill-rule: nonzero; opacity: 1;"  transform=" translate(-690.64, -547.6)" d="M 690.012 567.167 c -6.832 -0.001 -13.667 -0.131 -20.494 0.039 c -5.526 0.138 -7.921 -2.285 -7.795 -7.812 c 0.177 -7.759 0.226 -15.531 -0.015 -23.287 c -0.178 -5.727 2.932 -7.949 7.927 -8.001 c 13.972 -0.148 27.948 -0.15 41.92 -0.01 c 5.23 0.053 7.898 3.151 7.944 8.339 c 0.069 7.763 -0.091 15.529 0.067 23.289 c 0.118 5.754 -2.846 7.604 -8.127 7.484 C 704.3 567.048 697.155 567.169 690.012 567.167 z" stroke-linecap="round" />
</g>
		<g transform="matrix(1 0 0 1 83.51 119.3)" id="Layer_1"  >
<path style="stroke: none; stroke-width: 1; stroke-dasharray: none; stroke-linecap: butt; stroke-dashoffset: 0; stroke-linejoin: miter; stroke-miterlimit: 4; fill: rgb(204,233,255); fill-rule: nonzero; opacity: 1;"  transform=" translate(-623.51, -659.3)" d="M 512.597 660.29 c 2.789 -2.954 6.416 -1.722 9.671 -1.725 c 67.494 -0.071 134.988 -0.071 202.482 0 c 3.257 0.003 6.88 -1.228 9.677 1.708 C 660.484 660.279 586.541 660.284 512.597 660.29 z" stroke-linecap="round" />
</g>
		<g transform="matrix(1 0 0 1 151.7 -53.09)" id="Layer_1"  >
<path style="stroke: none; stroke-width: 1; stroke-dasharray: none; stroke-linecap: butt; stroke-dashoffset: 0; stroke-linejoin: miter; stroke-miterlimit: 4; fill: rgb(204,233,255); fill-rule: nonzero; opacity: 1;"  transform=" translate(-691.7, -486.91)" d="M 736.293 481.438 c -2.812 2.92 -6.436 1.677 -9.7 1.693 c -21.702 0.109 -43.42 0.533 -65.1 -0.167 c -9.275 -0.3 -12.325 2.909 -10.976 11.534 c -5.339 -6.732 -4.435 -11.243 2.924 -13.684 c 2.291 -0.76 4.808 -1.288 7.201 -1.218 C 685.857 480.33 711.158 477.581 736.293 481.438 z" stroke-linecap="round" />
</g>
		<g transform="matrix(1 0 0 1 208.41 30.84)" id="Layer_1"  >
<path style="stroke: none; stroke-width: 1; stroke-dasharray: none; stroke-linecap: butt; stroke-dashoffset: 0; stroke-linejoin: miter; stroke-miterlimit: 4; fill: rgb(204,233,255); fill-rule: nonzero; opacity: 1;"  transform=" translate(-748.41, -570.84)" d="M 749.336 645.405 c -2.549 -2.152 -1.755 -5.112 -1.757 -7.798 c -0.039 -44.512 -0.039 -89.024 0 -133.536 c 0.002 -2.686 -0.788 -5.647 1.778 -7.787 C 749.349 545.991 749.343 595.698 749.336 645.405 z" stroke-linecap="round" />
</g>
		<g transform="matrix(1 0 0 1 162.78 80.15)" id="Layer_1"  >
<path style="stroke: none; stroke-width: 1; stroke-dasharray: none; stroke-linecap: butt; stroke-dashoffset: 0; stroke-linejoin: miter; stroke-miterlimit: 4; fill: rgb(204,233,255); fill-rule: nonzero; opacity: 1;"  transform=" translate(-702.78, -620.15)" d="M 702.66 625.321 c -4.82 -1.847 -13.787 3.075 -13.856 -4.728 c -0.079 -8.865 9.147 -4.531 14.137 -4.688 c 4.815 -0.152 13.724 -3.579 13.809 4.089 C 716.849 628.907 707.493 623.251 702.66 625.321 z" stroke-linecap="round" />
</g>
		<g transform="matrix(1 0 0 1 83.42 80.32)" id="Layer_1"  >
<path style="stroke: none; stroke-width: 1; stroke-dasharray: none; stroke-linecap: butt; stroke-dashoffset: 0; stroke-linejoin: miter; stroke-miterlimit: 4; fill: rgb(204,233,255); fill-rule: nonzero; opacity: 1;"  transform=" translate(-623.42, -620.32)" d="M 623.638 624.959 c -3.103 0 -6.206 -0.005 -9.31 0.001 c -2.928 0.006 -4.662 -1.19 -4.764 -4.361 c -0.116 -3.6 1.694 -5.017 5.096 -4.991 c 5.586 0.043 11.173 -0.021 16.758 0.041 c 3.626 0.04 6.027 1.642 5.847 5.586 c -0.188 4.117 -3.439 3.67 -6.179 3.756 c -2.48 0.078 -4.965 0.016 -7.448 0.016 C 623.638 624.991 623.638 624.975 623.638 624.959 z" stroke-linecap="round" />
</g>
		<g transform="matrix(1 0 0 1 122.91 80.45)" id="Layer_1"  >
<path style="stroke: none; stroke-width: 1; stroke-dasharray: none; stroke-linecap: butt; stroke-dashoffset: 0; stroke-linejoin: miter; stroke-miterlimit: 4; fill: rgb(204,233,255); fill-rule: nonzero; opacity: 1;"  transform=" translate(-662.91, -620.45)" d="M 663.565 615.237 c 4.016 2.603 12.958 -4.102 12.67 5.399 c -0.237 7.81 -8.269 4.247 -12.612 4.081 c -4.988 -0.19 -14.178 4.083 -14.048 -4.754 C 649.687 612.233 658.604 617.127 663.565 615.237 z" stroke-linecap="round" />
</g>
		<g transform="matrix(1 0 0 1 44.34 80.21)" id="Layer_1"  >
<path style="stroke: none; stroke-width: 1; stroke-dasharray: none; stroke-linecap: butt; stroke-dashoffset: 0; stroke-linejoin: miter; stroke-miterlimit: 4; fill: rgb(204,233,255); fill-rule: nonzero; opacity: 1;"  transform=" translate(-584.34, -620.21)" d="M 582.414 624.974 c -3.319 -1.889 -11.477 3.895 -11.676 -4.509 c -0.203 -8.582 7.82 -3.786 12.163 -4.75 c 2.93 -0.65 6.125 -0.131 9.201 -0.091 c 3.06 0.04 5.719 1.029 5.839 4.496 c 0.119 3.442 -2.352 4.754 -5.481 4.836 C 589.385 625.037 586.307 624.974 582.414 624.974 z" stroke-linecap="round" />
</g>
		<g transform="matrix(1 0 0 1 3.57 80.45)" id="Layer_1"  >
<path style="stroke: none; stroke-width: 1; stroke-dasharray: none; stroke-linecap: butt; stroke-dashoffset: 0; stroke-linejoin: miter; stroke-miterlimit: 4; fill: rgb(204,233,255); fill-rule: nonzero; opacity: 1;"  transform=" translate(-543.57, -620.45)" d="M 544.348 615.23 c 3.932 2.68 12.967 -4.193 12.521 5.487 c -0.354 7.67 -8.335 4.181 -12.694 4 c -4.95 -0.205 -14.163 4.121 -13.911 -4.851 C 530.479 612.212 539.357 617.129 544.348 615.23 z" stroke-linecap="round" />
</g>
		<g transform="matrix(1 0 0 1 -35.86 79.16)" id="Layer_1"  >
<path style="stroke: none; stroke-width: 1; stroke-dasharray: none; stroke-linecap: butt; stroke-dashoffset: 0; stroke-linejoin: miter; stroke-miterlimit: 4; fill: rgb(204,233,255); fill-rule: nonzero; opacity: 1;"  transform=" translate(-504.14, -619.16)" d="M 510.736 596.873 c -9.6 -1.268 -11.716 3.19 -11.555 12.282 c 0.203 11.437 2.502 23.149 -1.574 34.445 c -0.021 -12.738 -0.068 -25.476 -0.055 -38.213 C 497.564 593.932 499.347 592.8 510.736 596.873 z" stroke-linecap="round" />
</g>
		<g transform="matrix(1 0 0 1 -16.5 203.52)" id="Layer_1"  >
<path style="stroke: none; stroke-width: 1; stroke-dasharray: none; stroke-linecap: butt; stroke-dashoffset: 0; stroke-linejoin: miter; stroke-miterlimit: 4; fill: rgb(232,232,232); fill-rule: nonzero; opacity: 1;"  transform=" translate(-523.5, -743.52)" d="M 803.465 758.191 H 243.53 c -5.955 0 -10.782 -4.827 -10.782 -10.782 v -7.775 c 0 -5.955 4.827 -10.782 10.782 -10.782 h 559.935 c 5.955 0 10.782 4.827 10.782 10.782 v 7.775 C 814.247 753.364 809.419 758.191 803.465 758.191 z" stroke-linecap="round" />
</g>
		<g transform="matrix(1 0 0 1 -22.03 -43.72)" id="Layer_1"  >
<path style="stroke: none; stroke-width: 1; stroke-dasharray: none; stroke-linecap: butt; stroke-dashoffset: 0; stroke-linejoin: miter; stroke-miterlimit: 4; fill: rgb(242,242,242); fill-rule: nonzero; opacity: 1;"  transform=" translate(-517.97, -496.28)" d="M 599.443 583.169 H 436.494 c -19.468 0 -35.251 -15.782 -35.251 -35.251 v -103.27 c 0 -19.468 15.782 -35.251 35.251 -35.251 h 162.949 c 19.469 0 35.251 15.782 35.251 35.251 v 103.27 C 634.694 567.387 618.912 583.169 599.443 583.169 z" stroke-linecap="round" />
</g>
		<g transform="matrix(1 0 0 1 -22.03 -105.16)" id="Layer_1"  >
<path style="stroke: none; stroke-width: 1; stroke-dasharray: none; stroke-linecap: butt; stroke-dashoffset: 0; stroke-linejoin: miter; stroke-miterlimit: 4; fill: rgb(42,148,244); fill-rule: nonzero; opacity: 1;"  transform=" translate(-517.97, -434.84)" d="M 401.243 433.159 c 0 -13.123 10.638 -23.762 23.762 -23.762 h 185.928 c 13.123 0 23.762 10.638 23.762 23.762 v 27.127 H 401.243 V 433.159 z" stroke-linecap="round" />
</g>
		<g transform="matrix(1 0 0 1 -20.76 -61.32)" id="Layer_1"  >
<path style="stroke: none; stroke-width: 1; stroke-dasharray: none; stroke-linecap: butt; stroke-dashoffset: 0; stroke-linejoin: miter; stroke-miterlimit: 4; fill: rgb(11,72,112); fill-rule: nonzero; opacity: 1;"  transform=" translate(-519.24, -478.68)" d="M 526.053 471.578 c 0.033 3.472 0.053 6.944 0.11 10.415 c 0.012 0.741 -0.28 1.056 -0.993 1.203 c -3.983 0.82 -7.963 1.655 -11.932 2.538 c -0.825 0.184 -0.914 -0.168 -0.913 -0.809 c 0.009 -3.115 0.029 -6.23 -0.011 -9.344 c -0.012 -0.902 0.478 -1.056 1.196 -1.205 c 3.747 -0.778 7.485 -1.599 11.227 -2.405 c 0.342 -0.074 0.729 -0.036 0.955 -0.393 C 525.813 471.578 525.933 471.578 526.053 471.578 z" stroke-linecap="round" />
</g>
		<g transform="matrix(1 0 0 1 12.69 -18.23)" id="Layer_1"  >
<path style="stroke: none; stroke-width: 1; stroke-dasharray: none; stroke-linecap: butt; stroke-dashoffset: 0; stroke-linejoin: miter; stroke-miterlimit: 4; fill: rgb(11,72,112); fill-rule: nonzero; opacity: 1;"  transform=" translate(-552.69, -521.77)" d="M 545.215 536.242 c 0 4.519 -0.113 8.812 0.052 13.096 c 0.072 1.882 -0.488 2.587 -2.336 2.883 c -3.246 0.52 -6.45 1.309 -9.661 2.035 c -1.28 0.289 -1.912 0.206 -1.908 -1.441 c 0.054 -20.381 0.05 -40.761 0.003 -61.142 c -0.003 -1.415 0.476 -1.712 1.759 -1.666 c 2.454 0.089 4.914 0.026 7.372 0.026 c 3.086 0 3.086 0 3.749 2.988 c 0.33 0.216 0.554 0.001 0.782 -0.192 c 6.866 -5.828 17.877 -4.925 24.213 4.024 c 2.583 3.648 4.021 7.766 4.47 12.178 c 0.769 7.567 0.304 14.963 -3.623 21.769 c -5.174 8.967 -16.58 11.282 -23.88 5.929 C 545.987 536.566 545.711 536.482 545.215 536.242 z M 545.189 514.238 c 0.026 0 0.053 0 0.079 0 c 0 2.997 0.046 5.995 -0.022 8.99 c -0.028 1.235 0.473 1.996 1.458 2.656 c 3.957 2.648 8.702 1.712 11.309 -2.279 c 3.168 -4.849 3.129 -13.723 -0.08 -18.53 c -2.719 -4.072 -7.707 -4.872 -11.617 -1.898 c -0.776 0.59 -1.175 1.222 -1.151 2.251 C 545.233 508.363 545.189 511.301 545.189 514.238 z" stroke-linecap="round" />
</g>
		<g transform="matrix(1 0 0 1 57.14 -25.68)" id="Layer_1"  >
<path style="stroke: none; stroke-width: 1; stroke-dasharray: none; stroke-linecap: butt; stroke-dashoffset: 0; stroke-linejoin: miter; stroke-miterlimit: 4; fill: rgb(11,72,112); fill-rule: nonzero; opacity: 1;"  transform=" translate(-597.14, -514.32)" d="M 614.892 524.889 c 0 3.559 -0.008 6.958 0.007 10.357 c 0.003 0.573 -0.296 0.867 -0.751 1.101 c -7.566 3.906 -21.275 5.165 -29.394 -1.461 c -4.518 -3.688 -6.771 -8.577 -7.705 -14.187 c -1.181 -7.098 -0.599 -13.996 2.731 -20.467 c 4.946 -9.612 15.979 -13.711 25.685 -9.526 c 6.377 2.749 9.5 8.153 11.216 14.541 c 1.131 4.208 1.212 8.517 1.061 12.848 c -0.045 1.291 -0.692 1.398 -1.719 1.395 c -7.914 -0.025 -15.828 0.029 -23.74 -0.05 c -1.607 -0.016 -1.918 0.373 -1.497 1.898 c 1.02 3.693 4.071 6.112 8.397 6.394 c 5.102 0.334 10.044 -0.311 14.717 -2.513 C 614.156 525.099 614.44 525.038 614.892 524.889 z M 597.484 509.312 c 1.911 0 3.825 -0.057 5.734 0.021 c 1.151 0.047 1.399 -0.4 1.346 -1.47 c -0.2 -4.094 -3.158 -7.357 -6.829 -7.426 c -3.817 -0.071 -7.048 3.24 -7.304 7.404 c -0.064 1.046 0.13 1.546 1.32 1.493 C 593.658 509.25 595.573 509.312 597.484 509.312 z" stroke-linecap="round" />
</g>
		<g transform="matrix(1 0 0 1 -104.25 -25.61)" id="Layer_1"  >
<path style="stroke: none; stroke-width: 1; stroke-dasharray: none; stroke-linecap: butt; stroke-dashoffset: 0; stroke-linejoin: miter; stroke-miterlimit: 4; fill: rgb(11,72,112); fill-rule: nonzero; opacity: 1;"  transform=" translate(-435.75, -514.39)" d="M 418.758 529.873 c 0 -1.679 0.053 -3.361 -0.017 -5.037 c -0.052 -1.234 0.152 -1.614 1.44 -0.962 c 3.989 2.019 8.208 3.307 12.687 3.702 c 1.401 0.124 2.765 -0.001 4.078 -0.435 c 2.523 -0.834 3.06 -3.448 1.081 -5.219 c -1.417 -1.268 -3.219 -1.828 -4.956 -2.476 c -2.413 -0.901 -4.852 -1.726 -7.161 -2.889 c -4.686 -2.361 -7.687 -5.884 -7.769 -11.356 c -0.088 -5.868 2.228 -10.484 7.429 -13.413 c 4.866 -2.741 10.188 -2.906 15.564 -2.418 c 2.868 0.26 5.661 0.951 8.396 1.883 c 0.884 0.301 1.222 0.738 1.21 1.678 c -0.046 3.538 -0.037 7.076 -0.005 10.614 c 0.009 0.937 -0.195 1.179 -1.109 0.727 c -3.587 -1.774 -7.41 -2.691 -11.386 -3.053 c -1.275 -0.116 -2.515 -0.028 -3.746 0.256 c -1.206 0.278 -2.07 0.972 -2.29 2.243 c -0.21 1.21 0.411 2.076 1.339 2.748 c 1.179 0.854 2.538 1.341 3.894 1.82 c 2.541 0.897 5.121 1.684 7.559 2.855 c 5.794 2.782 8.749 7.3 8.324 13.798 c -0.41 6.263 -3.706 10.536 -9.461 12.809 c -7.198 2.843 -14.464 2.129 -21.674 -0.06 c -3.442 -1.045 -3.425 -1.1 -3.425 -4.756 C 418.757 531.912 418.757 530.893 418.758 529.873 z" stroke-linecap="round" />
</g>
		<g transform="matrix(1 0 0 1 -71.87 -31.05)" id="Layer_1"  >
<path style="stroke: none; stroke-width: 1; stroke-dasharray: none; stroke-linecap: butt; stroke-dashoffset: 0; stroke-linejoin: miter; stroke-miterlimit: 4; fill: rgb(11,72,112); fill-rule: nonzero; opacity: 1;"  transform=" translate(-468.13, -508.95)" d="M 456.159 503.851 c 0 -7.072 0.04 -14.144 -0.035 -21.215 c -0.015 -1.38 0.448 -1.842 1.748 -2.081 c 3.53 -0.648 7.042 -1.403 10.538 -2.217 c 1.061 -0.247 1.222 0.095 1.215 1.012 c -0.024 3.056 0.049 6.114 -0.011 9.169 c -0.023 1.162 0.309 1.581 1.518 1.54 c 2.514 -0.086 5.034 0.013 7.55 -0.044 c 1.105 -0.025 1.632 0.23 1.598 1.486 c -0.079 2.994 -0.071 5.993 -0.002 8.988 c 0.026 1.14 -0.402 1.425 -1.464 1.4 c -2.576 -0.061 -5.154 0.017 -7.73 -0.038 c -1.065 -0.023 -1.476 0.293 -1.468 1.423 c 0.046 6.053 -0.04 12.107 0.043 18.159 c 0.063 4.562 2.777 6.607 7.426 5.788 c 3.17 -0.558 3.17 -0.558 3.17 2.685 c 0 2.217 -0.037 4.436 0.019 6.652 c 0.021 0.859 -0.277 1.354 -1.075 1.61 c -5.153 1.653 -10.359 2.319 -15.403 -0.14 c -5.471 -2.668 -7.764 -7.405 -7.797 -13.328 c -0.039 -6.949 -0.009 -13.899 -0.009 -20.849 C 456.046 503.851 456.103 503.851 456.159 503.851 z" stroke-linecap="round" />
</g>
		<g transform="matrix(1 0 0 1 -43.17 -25.94)" id="Layer_1"  >
<path style="stroke: none; stroke-width: 1; stroke-dasharray: none; stroke-linecap: butt; stroke-dashoffset: 0; stroke-linejoin: miter; stroke-miterlimit: 4; fill: rgb(11,72,112); fill-rule: nonzero; opacity: 1;"  transform=" translate(-496.83, -514.06)" d="M 497.435 494 c 2.471 -3.816 5.828 -4.852 9.823 -4.349 c 1.212 0.153 1.876 0.594 1.814 2.057 c -0.133 3.111 -0.089 6.232 -0.017 9.346 c 0.029 1.252 -0.282 1.667 -1.612 1.486 c -2.743 -0.374 -5.373 -0.044 -7.656 1.768 c -0.96 0.762 -1.426 1.607 -1.42 2.895 c 0.049 9.828 -0.005 19.656 0.062 29.483 c 0.01 1.491 -0.372 1.94 -1.882 1.891 c -3.532 -0.113 -7.071 -0.064 -10.606 -0.019 c -0.983 0.013 -1.362 -0.252 -1.36 -1.302 c 0.028 -15.281 0.03 -30.563 -0.003 -45.844 c -0.002 -1.145 0.417 -1.419 1.47 -1.399 c 2.875 0.054 5.757 0.112 8.627 -0.019 c 1.531 -0.07 2.214 0.419 2.281 1.933 C 496.983 492.512 497.216 493.087 497.435 494 z" stroke-linecap="round" />
</g>
		<g transform="matrix(1 0 0 1 -20.76 -25.71)" id="Layer_1"  >
<path style="stroke: none; stroke-width: 1; stroke-dasharray: none; stroke-linecap: butt; stroke-dashoffset: 0; stroke-linejoin: miter; stroke-miterlimit: 4; fill: rgb(11,72,112); fill-rule: nonzero; opacity: 1;"  transform=" translate(-519.24, -514.29)" d="M 512.33 514.182 c 0 -7.488 0.033 -14.975 -0.031 -22.462 c -0.011 -1.344 0.349 -1.755 1.706 -1.718 c 3.472 0.093 6.949 0.081 10.421 0.005 c 1.284 -0.028 1.763 0.265 1.758 1.674 c -0.051 15.095 -0.047 30.189 -0.005 45.284 c 0.003 1.272 -0.38 1.628 -1.625 1.601 c -3.532 -0.076 -7.07 -0.099 -10.601 0.009 c -1.426 0.044 -1.66 -0.477 -1.651 -1.751 C 512.358 529.277 512.33 521.73 512.33 514.182 z" stroke-linecap="round" />
</g>
		<g transform="matrix(1 0 0 1 12.76 -25.62)" id="Layer_1"  >
<path style="stroke: none; stroke-width: 1; stroke-dasharray: none; stroke-linecap: butt; stroke-dashoffset: 0; stroke-linejoin: miter; stroke-miterlimit: 4; fill: rgb(253,253,254); fill-rule: nonzero; opacity: 1;"  transform=" translate(-552.76, -514.38)" d="M 545.189 514.238 c 0 -2.937 0.044 -5.875 -0.024 -8.811 c -0.024 -1.029 0.375 -1.661 1.151 -2.251 c 3.91 -2.974 8.898 -2.174 11.617 1.898 c 3.21 4.806 3.248 13.681 0.08 18.53 c -2.608 3.992 -7.352 4.928 -11.309 2.279 c -0.985 -0.659 -1.486 -1.42 -1.458 -2.656 c 0.068 -2.995 0.022 -5.993 0.022 -8.99 C 545.242 514.238 545.215 514.238 545.189 514.238 z" stroke-linecap="round" />
</g>
		<g transform="matrix(1 0 0 1 57.5 -35.11)" id="Layer_1"  >
<path style="stroke: none; stroke-width: 1; stroke-dasharray: none; stroke-linecap: butt; stroke-dashoffset: 0; stroke-linejoin: miter; stroke-miterlimit: 4; fill: rgb(253,253,254); fill-rule: nonzero; opacity: 1;"  transform=" translate(-597.5, -504.89)" d="M 597.484 509.312 c -1.911 0 -3.826 -0.062 -5.733 0.023 c -1.19 0.053 -1.384 -0.448 -1.32 -1.493 c 0.256 -4.163 3.487 -7.475 7.304 -7.404 c 3.671 0.068 6.629 3.331 6.829 7.426 c 0.052 1.07 -0.196 1.517 -1.346 1.47 C 601.309 509.255 599.396 509.312 597.484 509.312 z" stroke-linecap="round" />
</g>
		<g transform="matrix(1 0 0 1 -154.5 -48.95)" id="Layer_1"  >
<path style="stroke: none; stroke-width: 1; stroke-dasharray: none; stroke-linecap: butt; stroke-dashoffset: 0; stroke-linejoin: miter; stroke-miterlimit: 4; fill: rgb(185,122,89); fill-rule: nonzero; opacity: 1;"  transform=" translate(-385.5, -491.05)" d="M 372.221 497.376 l 28.345 -5.838 l 2.847 -6.196 c 0 0 -0.339 -0.167 -1.65 0.868 c -0.372 0.292 -1.033 2.313 -1.53 2.464 c -0.664 0.199 -2.167 1.874 -3.071 1.613 c -6.535 -1.87 -15.91 -5.918 -23.595 -5.541 C 361.2 485.35 371.79 497.657 372.221 497.376 z" stroke-linecap="round" />
</g>
		<g transform="matrix(1 0 0 1 -202.77 -41.76)" id="Layer_1"  >
<path style="stroke: none; stroke-width: 1; stroke-dasharray: none; stroke-linecap: butt; stroke-dashoffset: 0; stroke-linejoin: miter; stroke-miterlimit: 4; fill: rgb(255,190,85); fill-rule: nonzero; opacity: 1;"  transform=" translate(-337.23, -498.24)" d="M 298.396 507.782 c 0 0 6.753 -9.499 36.8 -17.39 c 30.697 -8.061 30.554 -5.971 30.554 -5.971 l 7.203 -0.08 l 3.101 12.689 l -48.661 15.264 L 298.396 507.782 z" stroke-linecap="round" />
</g>
		<g transform="matrix(1 0 0 1 -203.89 -31.6)" id="Layer_1"  >
<path style="stroke: none; stroke-width: 1; stroke-dasharray: none; stroke-linecap: butt; stroke-dashoffset: 0; stroke-linejoin: miter; stroke-miterlimit: 4; fill: rgb(255,190,85); fill-rule: nonzero; opacity: 1;"  transform=" translate(-336.11, -508.4)" d="M 314.072 516.657 l 33.48 -11.268 l 11.77 -5.256 l -5.82 0.669 c 0 0 -3.575 0.69 -21.496 5.116 c -10.097 2.487 -13.951 4.187 -19.101 6.522 L 314.072 516.657 z" stroke-linecap="round" />
</g>
		<g transform="matrix(1 0 0 1 -168.25 -46.83)" id="Layer_1"  >
<polygon style="stroke: none; stroke-width: 1; stroke-dasharray: none; stroke-linecap: butt; stroke-dashoffset: 0; stroke-linejoin: miter; stroke-miterlimit: 4; fill: rgb(255,190,85); fill-rule: nonzero; opacity: 1;"  points="-3.99,-5.08 -2.54,3.07 -1.91,5.08 3.99,3.8 0.37,-4.92 " />
</g>
		<g transform="matrix(1 0 0 1 -140.02 -55.35)" id="Layer_1"  >
<path style="stroke: none; stroke-width: 1; stroke-dasharray: none; stroke-linecap: butt; stroke-dashoffset: 0; stroke-linejoin: miter; stroke-miterlimit: 4; fill: rgb(185,122,89); fill-rule: nonzero; opacity: 1;"  transform=" translate(-399.98, -484.65)" d="M 400.588 481.276 c 1.81 -1.326 4.829 -4.082 4.998 -2.62 l -5.212 5.142 l -1.381 3.315 l 0.993 2.718 l -2.382 0.431 c -0.568 0.731 -1.068 1.22 -2.234 0.241 l -0.993 0.218 c 0.608 -2.677 0.786 -3.824 1.255 -4.519 l 2.182 -2.714 C 398.41 482.669 400.588 481.276 400.588 481.276 z" stroke-linecap="round" />
</g>
		<g transform="matrix(1 0 0 1 -229.14 77.6)" id="Layer_1"  >
<path style="stroke: none; stroke-width: 1; stroke-dasharray: none; stroke-linecap: butt; stroke-dashoffset: 0; stroke-linejoin: miter; stroke-miterlimit: 4; fill: rgb(11,72,112); fill-rule: nonzero; opacity: 1;"  transform=" translate(-310.86, -617.6)" d="M 293.033 589.766 c 0 0 14.607 51.712 26.309 70.225 c 11.703 18.516 15.784 -5.569 15.784 -5.569 s -1.057 -32.607 -2.855 -43.284 c -1.829 -10.86 -11.675 -42.712 -11.675 -42.712 l -33.996 -0.213 C 286.599 568.213 287.459 569.975 293.033 589.766 z" stroke-linecap="round" />
</g>
		<g transform="matrix(1 0 0 1 -247.03 76.22)" id="Layer_1"  >
<path style="stroke: none; stroke-width: 1; stroke-dasharray: none; stroke-linecap: butt; stroke-dashoffset: 0; stroke-linejoin: miter; stroke-miterlimit: 4; fill: rgb(11,72,112); fill-rule: nonzero; opacity: 1;"  transform=" translate(-292.97, -616.22)" d="M 309.172 568.419 c 0 0 -9.786 84.833 -11.188 89.095 c -4.736 14.42 -15.565 5.109 -17.235 0.303 c -1.673 -4.805 -4.459 -40.373 -3.902 -66.328 c 0.554 -25.956 0.554 -24.254 0.554 -24.254 L 309.172 568.419 z" stroke-linecap="round" />
</g>
		<g transform="matrix(1 0 0 1 -251.85 192.44)" id="Layer_1"  >
<path style="stroke: none; stroke-width: 1; stroke-dasharray: none; stroke-linecap: butt; stroke-dashoffset: 0; stroke-linejoin: miter; stroke-miterlimit: 4; fill: rgb(11,72,112); fill-rule: nonzero; opacity: 1;"  transform=" translate(-288.15, -732.44)" d="M 279.354 734.983 c -0.505 0.609 -0.135 2.217 -0.135 2.217 s 8.801 0.978 11.633 0.313 c 0.735 -0.172 1.979 -0.804 3.15 -1.475 c 0.197 -0.114 0.547 -0.79 0.738 -0.904 c 0.354 -0.211 0.54 0.142 0.841 -0.049 c 0.786 -0.495 1.336 -0.878 1.345 -0.928 c 0.774 -4.036 -0.256 -5.66 -0.256 -5.66 s -7.495 -2.492 -8.898 -0.756 C 284.466 731.826 280.454 733.647 279.354 734.983 z" stroke-linecap="round" />
</g>
		<g transform="matrix(1 0 0 1 -192.04 192.31)" id="Layer_1"  >
<path style="stroke: none; stroke-width: 1; stroke-dasharray: none; stroke-linecap: butt; stroke-dashoffset: 0; stroke-linejoin: miter; stroke-miterlimit: 4; fill: rgb(11,72,112); fill-rule: nonzero; opacity: 1;"  transform=" translate(-347.96, -732.31)" d="M 334.085 731.361 l 1.254 6.555 h 6.688 c 0 0 0.371 -0.927 0.937 -0.927 c 0.476 0 1.093 0.927 1.742 0.927 c 1.407 0 2.966 0 3.591 0 c 1.254 0 13.421 0 13.421 0 s 0.304 -1.378 -0.066 -1.854 c -0.19 -0.243 -1.308 -0.668 -2.055 -0.878 c -3.453 -0.97 -13.341 -3.998 -15.06 -7.298 C 342.446 723.869 334.085 731.361 334.085 731.361 z" stroke-linecap="round" />
</g>
		<g transform="matrix(1 0 0 1 -250.62 -64.65)" id="Layer_1"  >
<path style="stroke: none; stroke-width: 1; stroke-dasharray: none; stroke-linecap: butt; stroke-dashoffset: 0; stroke-linejoin: miter; stroke-miterlimit: 4; fill: rgb(255,255,255); fill-rule: nonzero; opacity: 1;"  transform=" translate(-289.38, -475.35)" d="M 292.299 476.033 c 0.525 2.103 -0.211 4.096 -1.642 4.452 l 0 0 c -1.431 0.356 -3.015 -1.06 -3.538 -3.164 l -0.66 -2.645 c -0.525 -2.103 0.213 -4.097 1.642 -4.452 l 0 0 c 1.432 -0.356 3.015 1.06 3.539 3.163 L 292.299 476.033 z" stroke-linecap="round" />
</g>
		<g transform="matrix(1 0 0 1 -242.53 -60.83)" id="Layer_1"  >
<path style="stroke: none; stroke-width: 1; stroke-dasharray: none; stroke-linecap: butt; stroke-dashoffset: 0; stroke-linejoin: miter; stroke-miterlimit: 4; fill: rgb(185,122,89); fill-rule: nonzero; opacity: 1;"  transform=" translate(-297.47, -479.17)" d="M 302.714 493.061 c -0.25 2.98 -1.163 1.987 -2.85 2.109 c -1.598 0 -3.197 0 -4.797 0 c -1.686 -0.122 -1.475 1.261 -1.725 -1.718 c -0.393 -4.913 -2.599 -13.796 -2.993 -18.71 c -0.261 -2.948 0.891 -8.864 3.444 -10.612 c 2.334 -1.555 5.012 -1.555 7.346 0 c 2.552 1.747 3.705 7.664 3.443 10.612 C 304.289 479.407 303.242 487.808 302.714 493.061 z" stroke-linecap="round" />
</g>
		<g transform="matrix(1 0 0 1 -272.08 26.58)" id="Layer_1"  >
<path style="stroke: none; stroke-width: 1; stroke-dasharray: none; stroke-linecap: butt; stroke-dashoffset: 0; stroke-linejoin: miter; stroke-miterlimit: 4; fill: rgb(185,122,89); fill-rule: nonzero; opacity: 1;"  transform=" translate(-267.92, -566.58)" d="M 259.939 556.141 l 21.736 22.245 c 0 0 -26.21 -6.012 -27.375 -16.857 C 253.134 550.683 259.939 556.141 259.939 556.141 z" stroke-linecap="round" />
</g>
		<g transform="matrix(1 0 0 1 -240.96 -5.35)" id="Layer_1"  >
<path style="stroke: none; stroke-width: 1; stroke-dasharray: none; stroke-linecap: butt; stroke-dashoffset: 0; stroke-linejoin: miter; stroke-miterlimit: 4; fill: rgb(255,190,85); fill-rule: nonzero; opacity: 1;"  transform=" translate(-299.04, -534.65)" d="M 327.4 492.808 l -19.767 4.487 l -9.513 2.84 l -11.761 -1.343 l -12.959 5.615 c 0 0 -5.851 5.62 -0.417 23.677 c 5.436 18.058 3.345 46.347 3.345 46.347 l 46.123 2.056 c 0 0 1.686 -26.32 3.93 -52.307 C 328.14 503.805 325.357 497.27 327.4 492.808 z" stroke-linecap="round" />
</g>
		<g transform="matrix(1 0 0 1 -275.61 -4.05)" id="Layer_1"  >
<path style="stroke: none; stroke-width: 1; stroke-dasharray: none; stroke-linecap: butt; stroke-dashoffset: 0; stroke-linejoin: miter; stroke-miterlimit: 4; fill: rgb(255,190,85); fill-rule: nonzero; opacity: 1;"  transform=" translate(-264.39, -535.95)" d="M 281.764 505.211 c 0 0 -7.186 -5.625 -14.213 4.815 c -10.782 16.021 -17.974 33.705 -19.228 37.317 c -1.253 3.611 -2.926 14.447 2.092 17.656 c 5.015 3.213 5.015 3.213 5.015 3.213 l 10.449 -6.422 l -1.67 -3.21 l -0.838 -2.007 c 0 0 5.852 -12.841 12.12 -24.479 C 281.764 520.46 281.764 505.211 281.764 505.211 z" stroke-linecap="round" />
</g>
		<g transform="matrix(1 0 0 1 -241.93 -67.3)" id="Layer_1"  >
<path style="stroke: none; stroke-width: 1; stroke-dasharray: none; stroke-linecap: butt; stroke-dashoffset: 0; stroke-linejoin: miter; stroke-miterlimit: 4; fill: rgb(185,122,89); fill-rule: nonzero; opacity: 1;"  transform=" translate(-298.07, -472.7)" d="M 305.899 481.898 c -0.769 2.78 -1.915 3.443 -3.946 3.747 c -1.932 0.192 -2.403 0.383 -4.335 0.576 c -2.046 0.1 -4.135 -2.612 -4.611 -5.089 c -0.763 -4.087 -2.987 -7.443 -3.749 -11.528 c -0.492 -2.448 0.557 -4.643 3.54 -6.417 c 2.731 -1.587 5.968 -4.833 8.879 -3.805 c 3.189 1.164 4.929 6.002 4.782 8.513 C 307.504 472.058 306.84 477.755 305.899 481.898 z" stroke-linecap="round" />
</g>
		<g transform="matrix(1 0 0 1 -247.76 -39.49)" id="Layer_1"  >
<polygon style="stroke: none; stroke-width: 1; stroke-dasharray: none; stroke-linecap: butt; stroke-dashoffset: 0; stroke-linejoin: miter; stroke-miterlimit: 4; fill: rgb(255,190,85); fill-rule: nonzero; opacity: 1;"  points="5.75,-0.31 1.88,6.03 -5.75,-2.41 -2.38,-6.03 " />
</g>
		<g transform="matrix(1 0 0 1 -235.17 -40.54)" id="Layer_1"  >
<polygon style="stroke: none; stroke-width: 1; stroke-dasharray: none; stroke-linecap: butt; stroke-dashoffset: 0; stroke-linejoin: miter; stroke-miterlimit: 4; fill: rgb(255,190,85); fill-rule: nonzero; opacity: 1;"  points="1.18,-5.08 -3.44,-0.41 -0.34,5.08 3.44,-2.16 " />
</g>
		<g transform="matrix(1 0 0 1 -250.71 133.31)" id="Layer_1"  >
<path style="stroke: none; stroke-width: 1; stroke-dasharray: none; stroke-linecap: butt; stroke-dashoffset: 0; stroke-linejoin: miter; stroke-miterlimit: 4; fill: rgb(11,72,112); fill-rule: nonzero; opacity: 1;"  transform=" translate(-289.29, -673.31)" d="M 300.461 621.32 c 0 0 -2.168 32.174 -1.858 49.188 c 0.231 12.828 0.018 37.028 -1.934 57.988 c -0.119 1.28 -7.764 -1.299 -7.764 -1.299 s -9.614 -78.197 -10.729 -91.336 C 277.062 622.723 292.102 611.933 300.461 621.32 z" stroke-linecap="round" />
</g>
		<g transform="matrix(1 0 0 1 -210.4 151.94)" id="Layer_1"  >
<path style="stroke: none; stroke-width: 1; stroke-dasharray: none; stroke-linecap: butt; stroke-dashoffset: 0; stroke-linejoin: miter; stroke-miterlimit: 4; fill: rgb(11,72,112); fill-rule: nonzero; opacity: 1;"  transform=" translate(-329.6, -691.94)" d="M 331.51 656.934 c 0 0 -2.957 0.647 -12.262 1.453 c -4.24 0.366 14.837 72.974 14.837 72.974 l 6.482 -4.235 l -5.663 -74.604 L 331.51 656.934 z" stroke-linecap="round" />
</g>
		<g transform="matrix(1 0 0 1 -242.87 -77.85)" id="Layer_1"  >
<path style="stroke: none; stroke-width: 1; stroke-dasharray: none; stroke-linecap: butt; stroke-dashoffset: 0; stroke-linejoin: miter; stroke-miterlimit: 4; fill: rgb(11,72,112); fill-rule: nonzero; opacity: 1;"  transform=" translate(-297.13, -462.15)" d="M 287.769 466.411 l 1.49 3.192 c 0 0 3.161 -3.561 5.391 -6.48 c 0.703 -0.922 7.922 -1.004 9.713 -0.683 c 1.304 0.234 1.457 1.904 1.755 2.876 c 1.072 3.469 -0.457 -5.845 -0.457 -5.845 s -2.447 -4.384 -7.035 -4.75 c -2.535 -0.203 -3.716 1.27 -4.677 3.182 c -0.226 0.447 2.792 -0.727 2.269 -0.793 c -0.133 -0.015 -3.101 2.589 -3.192 2.788 c -0.451 0.99 -0.937 1.989 -1.586 2.861 C 288.992 466.045 287.769 466.411 287.769 466.411 z" stroke-linecap="round" />
</g>
		<g transform="matrix(1 0 0 1 -278.54 24.58)" id="Layer_1"  >
<polygon style="stroke: none; stroke-width: 1; stroke-dasharray: none; stroke-linecap: butt; stroke-dashoffset: 0; stroke-linejoin: miter; stroke-miterlimit: 4; fill: rgb(255,190,85); fill-rule: nonzero; opacity: 1;"  points="-6.27,1.59 2.74,-6 6.27,-1.19 -2.55,6 " />
</g>
		<g transform="matrix(1 0 0 1 -260.34 37.46)" id="Layer_1"  >
<path style="stroke: none; stroke-width: 1; stroke-dasharray: none; stroke-linecap: butt; stroke-dashoffset: 0; stroke-linejoin: miter; stroke-miterlimit: 4; fill: rgb(185,122,89); fill-rule: nonzero; opacity: 1;"  transform=" translate(-279.66, -577.46)" d="M 275.223 569.892 c 1.448 0.433 1.368 0.344 1.368 0.344 s -0.079 1.935 1.068 3.352 c 0.57 0.705 2.685 2.68 2.685 2.68 l 3.105 2.97 l 1.547 1.258 c 0 0 0.931 0.648 1.023 0.993 c 0.266 0.994 -0.585 0.825 -0.585 0.825 l -6.426 -4.375 l 4.853 5.656 c 0 0 0.502 0.829 0.194 1.23 c -0.287 0.374 -0.503 0.153 -0.503 0.153 l -6.971 -5.105 l 2.179 3.2 c 0 0 0.472 0.822 0.193 1.229 c -0.307 0.446 -0.377 0.577 -0.377 0.577 l -5.318 -5.896 C 273.257 578.981 273.774 569.461 275.223 569.892 z" stroke-linecap="round" />
</g>
		<g transform="matrix(1 0 0 1 -260.47 42.43)" id="Layer_1"  >
<path style="stroke: none; stroke-width: 1; stroke-dasharray: none; stroke-linecap: butt; stroke-dashoffset: 0; stroke-linejoin: miter; stroke-miterlimit: 4; fill: rgb(185,122,89); fill-rule: nonzero; opacity: 1;"  transform=" translate(-279.53, -582.43)" d="M 278.324 579.154 l 3.186 4.178 c 0 0 0.814 0.858 0.947 1.49 c 0.154 0.726 -0.466 0.88 -0.466 0.88 l -5.411 -5.831 L 278.324 579.154 z" stroke-linecap="round" />
</g>
		<g transform="matrix(1 0 0 1 -238.22 -3.01)" id="Layer_1"  >
<path style="stroke: none; stroke-width: 1; stroke-dasharray: none; stroke-linecap: butt; stroke-dashoffset: 0; stroke-linejoin: miter; stroke-miterlimit: 4; fill: rgb(255,190,85); fill-rule: nonzero; opacity: 1;"  transform=" translate(-301.78, -536.99)" d="M 297.668 575.224 h 4.874 c 5.098 -25.252 4.857 -51.307 -0.753 -76.472 c -1.471 0.588 -2.941 1.179 -4.41 1.768 C 302.83 525.118 302.918 550.599 297.668 575.224 z" stroke-linecap="round" />
</g>
		<g transform="matrix(1 0 0 1 -242.01 -55.9)" id="Layer_1"  >
<path style="stroke: none; stroke-width: 1; stroke-dasharray: none; stroke-linecap: butt; stroke-dashoffset: 0; stroke-linejoin: miter; stroke-miterlimit: 4; fill: rgb(173,109,81); fill-rule: nonzero; opacity: 1;"  transform=" translate(-297.99, -484.1)" d="M 303.567 485.449 c 0 0 -7.69 1.645 -11.163 -5.245 c 0 0 0.11 8.277 10.889 7.762 L 303.567 485.449 z" stroke-linecap="round" />
</g>
		<g transform="matrix(1 0 0 1 -240.96 -69.39)" id="Layer_1"  >
<path style="stroke: none; stroke-width: 1; stroke-dasharray: none; stroke-linecap: butt; stroke-dashoffset: 0; stroke-linejoin: miter; stroke-miterlimit: 4; fill: rgb(11,72,112); fill-rule: nonzero; opacity: 1;"  transform=" translate(-299.04, -470.61)" d="M 307.576 474.844 c 0 0 -0.362 -6.193 -2.95 -8.426 c -2.588 -2.233 -10.645 -0.265 -11.469 4.954 c -0.824 5.219 -0.732 8.011 -0.732 8.011 l -0.778 -2.106 c 0 0 -0.458 6.363 0 8.149 s -2.884 -3.479 -3.983 -7.416 c -1.099 -3.937 -3.25 -7.87 0.32 -14.808 s 13.825 -7.762 13.825 -7.762 l -2.839 1.831 c 0 0 5.678 -2.838 9.157 -1.099 l -3.9 1.648 l 6.829 1.648 l -4.789 0.183 l 5.796 2.747 h -3.662 L 307.576 474.844 z" stroke-linecap="round" />
</g>
		<g transform="matrix(1 0 0 1 -242.07 -42.71)" id="Layer_1"  >
<path style="stroke: none; stroke-width: 1; stroke-dasharray: none; stroke-linecap: butt; stroke-dashoffset: 0; stroke-linejoin: miter; stroke-miterlimit: 4; fill: rgb(185,122,89); fill-rule: nonzero; opacity: 1;"  transform=" translate(-297.93, -497.29)" d="M 301.39 494.376 h 4.615 c 0 0 -3.63 5.797 -8.02 5.831 c -4.39 0.033 -8.124 -5.727 -8.124 -5.727 l 3.763 -0.104 H 301.39 z" stroke-linecap="round" />
</g>
		<g transform="matrix(1 0 0 1 -90.5 169.09)" id="Layer_1"  >
<path style="stroke: none; stroke-width: 1; stroke-dasharray: none; stroke-linecap: butt; stroke-dashoffset: 0; stroke-linejoin: miter; stroke-miterlimit: 4; fill: rgb(42,148,244); fill-rule: nonzero; opacity: 1;"  transform=" translate(-449.5, -709.09)" d="M 461.516 727.556 c 0 2.266 -1.837 4.104 -4.104 4.104 h -15.829 c -2.266 0 -4.104 -1.837 -4.104 -4.104 v -36.934 c 0 -2.266 1.837 -4.104 4.104 -4.104 h 15.829 c 2.266 0 4.104 1.837 4.104 4.104 V 727.556 z" stroke-linecap="round" />
</g>
		<g transform="matrix(1 0 0 1 -73.34 96.36)" id="Layer_1"  >
<path style="stroke: none; stroke-width: 1; stroke-dasharray: none; stroke-linecap: butt; stroke-dashoffset: 0; stroke-linejoin: miter; stroke-miterlimit: 4; fill: rgb(42,148,244); fill-rule: nonzero; opacity: 0.4;"  transform=" translate(-466.66, -636.36)" d="M 451.396 644.003 c 0 0 -12.958 26.34 6.134 30.826 c 19.093 4.486 19.643 -15.383 17.687 -23.571 s 28.34 -30.202 3.353 -49.677 C 453.583 582.106 434.109 633.956 451.396 644.003 z" stroke-linecap="round" />
</g>
		<g transform="matrix(1 0 0 1 -108.21 111.04)" id="Layer_1"  >
<path style="stroke: none; stroke-width: 1; stroke-dasharray: none; stroke-linecap: butt; stroke-dashoffset: 0; stroke-linejoin: miter; stroke-miterlimit: 4; fill: rgb(42,148,244); fill-rule: nonzero; opacity: 0.4;"  transform=" translate(-431.79, -651.04)" d="M 427.268 658.302 c 0 0 -0.61 17.333 10.766 15.131 c 11.376 -2.203 6.865 -13.045 3.829 -16.985 c -3.036 -3.94 7.966 -23.137 -10.215 -27.587 C 413.467 624.41 415.518 657.07 427.268 658.302 z" stroke-linecap="round" />
</g>
		<g transform="matrix(1 0 0 1 -103.76 124.24)" id="Layer_1"  >
<line style="stroke: rgb(77,77,77); stroke-width: 1; stroke-dasharray: none; stroke-linecap: butt; stroke-dashoffset: 0; stroke-linejoin: miter; stroke-miterlimit: 10; fill: none; fill-rule: nonzero; opacity: 1;"  x1="-7.034999999999997" y1="-22.277500000000032" x2="7.034999999999997" y2="22.277500000000032" />
</g>
		<g transform="matrix(1 0 0 1 -107.47 114.78)" id="Layer_1"  >
<polyline style="stroke: rgb(77,77,77); stroke-width: 1; stroke-dasharray: none; stroke-linecap: butt; stroke-dashoffset: 0; stroke-linejoin: miter; stroke-miterlimit: 10; fill: none; fill-rule: nonzero; opacity: 1;"  points="4.89,-3.74 1.91,3.74 -4.89,0 " />
</g>
		<g transform="matrix(1 0 0 1 -79.38 111.64)" id="Layer_1"  >
<line style="stroke: rgb(77,77,77); stroke-width: 1; stroke-dasharray: none; stroke-linecap: butt; stroke-dashoffset: 0; stroke-linejoin: miter; stroke-miterlimit: 10; fill: none; fill-rule: nonzero; opacity: 1;"  x1="6.034999999999997" y1="-34.882000000000005" x2="-6.034999999999997" y2="34.882000000000005" />
</g>
		<g transform="matrix(1 0 0 1 -74.47 89.29)" id="Layer_1"  >
<polyline style="stroke: rgb(77,77,77); stroke-width: 1; stroke-dasharray: none; stroke-linecap: butt; stroke-dashoffset: 0; stroke-linejoin: miter; stroke-miterlimit: 10; fill: none; fill-rule: nonzero; opacity: 1;"  points="8.21,-1.99 -1.79,4.33 -8.21,-4.33 " />
</g>
		<g transform="matrix(1 0 0 1 -77.21 103.92)" id="Layer_1"  >
<polyline style="stroke: rgb(77,77,77); stroke-width: 1; stroke-dasharray: none; stroke-linecap: butt; stroke-dashoffset: 0; stroke-linejoin: miter; stroke-miterlimit: 10; fill: none; fill-rule: nonzero; opacity: 1;"  points="8.21,-1.99 -1.79,4.33 -8.21,-4.33 " />
</g>
		<g transform="matrix(1 0 0 1 299.82 149.44)" id="Layer_1"  >
<path style="stroke: none; stroke-width: 1; stroke-dasharray: none; stroke-linecap: butt; stroke-dashoffset: 0; stroke-linejoin: miter; stroke-miterlimit: 4; fill: rgb(42,148,244); fill-rule: nonzero; opacity: 0.4;"  transform=" translate(-839.82, -689.44)" d="M 777.171 713.623 c 0 0 62.652 -57.067 125.304 -14.315 c 0 0 -30.744 -39.327 -74.924 -33.463 C 783.37 671.708 777.171 713.623 777.171 713.623 z" stroke-linecap="round" />
</g>
		<g transform="matrix(1 0 0 1 276.21 128.09)" id="Layer_1"  >
<path style="stroke: none; stroke-width: 1; stroke-dasharray: none; stroke-linecap: butt; stroke-dashoffset: 0; stroke-linejoin: miter; stroke-miterlimit: 4; fill: rgb(42,148,244); fill-rule: nonzero; opacity: 0.4;"  transform=" translate(-816.21, -668.09)" d="M 779.088 715.919 c 0 0 8.149 -84.354 83.289 -94.705 c 0 0 -49.185 -8.523 -78.003 25.473 C 755.555 680.685 779.088 715.919 779.088 715.919 z" stroke-linecap="round" />
</g>
		<g transform="matrix(1 0 0 1 289.59 136.39)" id="Layer_1"  >
<path style="stroke: none; stroke-width: 1; stroke-dasharray: none; stroke-linecap: butt; stroke-dashoffset: 0; stroke-linejoin: miter; stroke-miterlimit: 4; fill: rgb(11,72,112); fill-rule: nonzero; opacity: 1;"  transform=" translate(-829.59, -676.39)" d="M 778.539 715.556 c 0 0 29.358 -79.499 104.656 -70.378 c 0 0 -45.394 -20.765 -81.918 4.774 S 778.539 715.556 778.539 715.556 z" stroke-linecap="round" />
</g>
		<g transform="matrix(1 0 0 1 239.83 175.38)" id="Layer_1"  >
<path style="stroke: none; stroke-width: 1; stroke-dasharray: none; stroke-linecap: butt; stroke-dashoffset: 0; stroke-linejoin: miter; stroke-miterlimit: 4; fill: rgb(42,148,244); fill-rule: nonzero; opacity: 1;"  transform=" translate(-779.83, -715.38)" d="M 751.496 715.383 c 0 8.848 7.173 16.02 16.02 16.02 h 24.637 c 8.848 0 16.02 -7.173 16.02 -16.02 l 0 0 c 0 -8.848 -7.173 -16.02 -16.02 -16.02 h -24.637 C 758.669 699.362 751.496 706.535 751.496 715.383 L 751.496 715.383 z" stroke-linecap="round" />
</g>
		<g transform="matrix(0.9 0.43 -0.43 0.9 -200.13 -89.74)" id="Layer_1"  >
<rect style="stroke: none; stroke-width: 1; stroke-dasharray: none; stroke-linecap: butt; stroke-dashoffset: 0; stroke-linejoin: miter; stroke-miterlimit: 4; fill: rgb(42,148,244); fill-rule: nonzero; opacity: 0.41;"  x="-12.062" y="-12.062" rx="0" ry="0" width="24.124" height="24.124" />
</g>
		<g transform="matrix(1 0 0 1 -155.87 -76.66)" id="Layer_1"  >
<circle style="stroke: none; stroke-width: 1; stroke-dasharray: none; stroke-linecap: butt; stroke-dashoffset: 0; stroke-linejoin: miter; stroke-miterlimit: 4; fill: rgb(42,148,244); fill-rule: nonzero; opacity: 0.22;"  cx="0" cy="0" r="9.863" />
</g>
		<g transform="matrix(0.9 0.43 -0.43 0.9 171.9 -93.17)" id="Layer_1"  >
<rect style="stroke: none; stroke-width: 1; stroke-dasharray: none; stroke-linecap: butt; stroke-dashoffset: 0; stroke-linejoin: miter; stroke-miterlimit: 4; fill: rgb(14,83,140); fill-rule: nonzero; opacity: 0.41;"  x="-12.062" y="-12.062" rx="0" ry="0" width="24.124" height="24.124" />
</g>
		<g transform="matrix(1 0 0 1 216.16 -80.08)" id="Layer_1"  >
<circle style="stroke: none; stroke-width: 1; stroke-dasharray: none; stroke-linecap: butt; stroke-dashoffset: 0; stroke-linejoin: miter; stroke-miterlimit: 4; fill: rgb(14,83,140); fill-rule: nonzero; opacity: 0.22;"  cx="0" cy="0" r="9.863" />
</g>
</g>
</g>
</svg>